<?xml version="1.0" encoding="UTF-8"?> <svg xmlns="http://www.w3.org/2000/svg" xmlns:xlink="http://www.w3.org/1999/xlink" width="267px" height="48px" viewBox="0 0 267 48" version="1.1"><title>band_grey</title><g id="Page-1" stroke="none" stroke-width="1" fill="none" fill-rule="evenodd"><g id="band_grey" fill-rule="nonzero"><circle id="Oval" fill="#F9F9F9" cx="23" cy="24" r="21"></circle><path d="M23.3965,0.461853 C10.4747,0.461853 0,10.9261 0,23.835 C0,36.7439 10.4747,47.2082 23.3965,47.2082 C36.3182,47.2082 46.7929,36.7439 46.7929,23.835 C46.7929,10.9264 36.318,0.461853 23.3965,0.461853 Z M33.0184,33.5971 L23.2425,39.2451 L23.2425,39.2471 L23.2385,39.2471 L13.4565,33.5971 L13.4565,14.0527 L13.4666,14.0588 L23.2344,8.42289 L29.5039,11.9177 L29.5059,11.9177 L29.5059,20.7408 L26.4552,18.9904 L26.4552,13.6763 L23.2385,11.8449 L16.5051,15.7343 L16.5051,31.9357 L23.2385,35.8251 L29.9718,31.9478 L30.0042,25.29 L20.437,19.7452 L23.5099,18.1303 L33.0427,23.6832 L33.0184,33.5991 L33.0184,33.5971 Z M25.0818,23.1996 L27.4377,24.5534 L20.437,28.5359 L20.437,20.5061 L22.8961,21.955 L22.8961,24.3652 L25.0839,23.1996 L25.0818,23.1996 Z" id="Shape" fill="#7C89A0"></path><path d="M61.8479,11.1305 L70.7933,11.1305 C71.6575,11.1305 72.511,11.233 73.3537,11.4381 C74.1964,11.6432 74.9472,11.9778 75.6062,12.4418 C76.2653,12.9059 76.8,13.5049 77.2106,14.2388 C77.6211,14.9728 77.8264,15.8578 77.8264,16.8939 C77.8264,18.189 77.4591,19.2575 76.7244,20.0993 C75.9898,20.9412 75.0283,21.5456 73.8399,21.9125 L73.8399,21.9773 C74.5529,22.0636 75.2173,22.2633 75.8331,22.5763 C76.4489,22.8893 76.9729,23.2886 77.405,23.7743 C77.8372,24.26 78.1775,24.8212 78.426,25.458 C78.6744,26.0947 78.7987,26.7801 78.7987,27.514 C78.7987,28.766 78.5502,29.8074 78.0532,30.6385 C77.5563,31.4695 76.9027,32.1387 76.0924,32.646 C75.2821,33.1532 74.353,33.5148 73.3051,33.7306 C72.2571,33.9465 71.193,34.0544 70.1126,34.0544 L61.8479,34.0544 L61.8479,11.1305 Z M65.9316,20.4555 L69.6589,20.4555 C71.0201,20.4555 72.0411,20.1911 72.7217,19.6622 C73.4023,19.1334 73.7426,18.4372 73.7426,17.5738 C73.7426,16.5809 73.3915,15.8416 72.6893,15.3559 C71.987,14.8702 70.8581,14.6274 69.3024,14.6274 L65.9316,14.6274 L65.9316,20.4555 Z M65.9316,30.5576 L69.6913,30.5576 C70.2099,30.5576 70.7662,30.5252 71.3604,30.4604 C71.9546,30.3957 72.5002,30.2446 72.9972,30.0071 C73.4941,29.7697 73.9047,29.4297 74.2288,28.9872 C74.5529,28.5447 74.7149,27.9457 74.7149,27.1902 C74.7149,25.9814 74.3206,25.1396 73.532,24.6647 C72.7433,24.1898 71.5171,23.9524 69.8533,23.9524 L65.9316,23.9524 L65.9316,30.5576 Z M91.7306,31.9174 L91.6333,31.9174 C91.0715,32.8025 90.3585,33.4446 89.4942,33.844 C88.6299,34.2433 87.6792,34.443 86.6421,34.443 C85.929,34.443 85.2322,34.3458 84.5516,34.1516 C83.871,33.9573 83.266,33.6659 82.7366,33.2773 C82.2072,32.8888 81.7805,32.4031 81.4564,31.8203 C81.1323,31.2375 80.9702,30.5576 80.9702,29.7805 C80.9702,28.9386 81.1215,28.2209 81.424,27.6273 C81.7265,27.0337 82.1316,26.5372 82.6394,26.1379 C83.1471,25.7386 83.7359,25.4202 84.4057,25.1827 C85.0756,24.9453 85.7724,24.7672 86.4962,24.6485 C87.2201,24.5298 87.9493,24.4542 88.684,24.4218 C89.4186,24.3895 90.11,24.3733 90.7582,24.3733 L91.7306,24.3733 L91.7306,23.9524 C91.7306,22.981 91.3957,22.2525 90.7258,21.7668 C90.056,21.2811 89.2025,21.0383 88.1654,21.0383 C87.3443,21.0383 86.5773,21.184 85.8642,21.4754 C85.1512,21.7668 84.5354,22.1608 84.0168,22.6572 L81.9749,20.6174 C82.8392,19.7324 83.8494,19.0956 85.0053,18.7071 C86.1613,18.3185 87.3551,18.1243 88.5867,18.1243 C89.6887,18.1243 90.6178,18.2484 91.374,18.4966 C92.1303,18.7448 92.7569,19.0632 93.2539,19.4518 C93.7508,19.8403 94.1343,20.2882 94.4044,20.7955 C94.6745,21.3027 94.869,21.8154 94.9878,22.3334 C95.1067,22.8515 95.1769,23.3534 95.1985,23.839 C95.2201,24.3247 95.2309,24.751 95.2309,25.118 L95.2309,34.0544 L91.7306,34.0544 L91.7306,31.9174 Z M91.5037,27.0931 L90.6934,27.0931 C90.1532,27.0931 89.5482,27.1147 88.8784,27.1578 C88.2086,27.201 87.5766,27.3035 86.9824,27.4654 C86.3882,27.6273 85.8858,27.8647 85.4753,28.1777 C85.0648,28.4907 84.8595,28.9278 84.8595,29.4891 C84.8595,29.856 84.9405,30.1636 85.1026,30.4119 C85.2646,30.6601 85.4753,30.8705 85.7346,31.0432 C85.9939,31.2159 86.2856,31.34 86.6097,31.4156 C86.9338,31.4911 87.2579,31.5289 87.582,31.5289 C88.9216,31.5289 89.9102,31.2105 90.5476,30.5737 C91.185,29.937 91.5037,29.0682 91.5037,27.9673 L91.5037,27.0931 Z M98.9257,18.5128 L102.621,18.5128 L102.621,21.0059 L102.685,21.0059 C103.053,20.2288 103.614,19.5543 104.371,18.9823 C105.127,18.4103 106.153,18.1243 107.45,18.1243 C108.487,18.1243 109.367,18.2969 110.091,18.6423 C110.815,18.9877 111.404,19.441 111.858,20.0022 C112.311,20.5634 112.635,21.211 112.83,21.9449 C113.024,22.6788 113.122,23.4451 113.122,24.2438 L113.122,34.0544 L109.232,34.0544 L109.232,26.1865 C109.232,25.7548 109.211,25.2745 109.168,24.7456 C109.124,24.2168 109.011,23.7203 108.827,23.2562 C108.644,22.7921 108.357,22.4036 107.968,22.0906 C107.579,21.7776 107.05,21.6211 106.38,21.6211 C105.732,21.6211 105.186,21.729 104.743,21.9449 C104.301,22.1608 103.933,22.4522 103.641,22.8191 C103.35,23.1861 103.139,23.607 103.009,24.0819 C102.88,24.5568 102.815,25.0532 102.815,25.5713 L102.815,34.0544 L98.9257,34.0544 L98.9257,18.5128 Z M129.359,31.7232 L129.295,31.7232 C128.733,32.6729 127.977,33.3637 127.026,33.7954 C126.075,34.2271 125.049,34.443 123.947,34.443 C122.737,34.443 121.662,34.2325 120.722,33.8116 C119.782,33.3907 118.977,32.8133 118.307,32.0793 C117.638,31.3454 117.13,30.482 116.784,29.4891 C116.438,28.4961 116.265,27.4277 116.265,26.2836 C116.265,25.1396 116.449,24.0711 116.816,23.0781 C117.184,22.0852 117.697,21.2218 118.356,20.4879 C119.015,19.754 119.809,19.1766 120.738,18.7556 C121.667,18.3347 122.683,18.1243 123.785,18.1243 C124.519,18.1243 125.168,18.1998 125.729,18.3509 C126.291,18.502 126.788,18.6963 127.22,18.9337 C127.652,19.1712 128.02,19.4248 128.322,19.6946 C128.625,19.9644 128.873,20.2288 129.068,20.4879 L129.165,20.4879 L129.165,9.57635 L133.054,9.57635 L133.054,34.0544 L129.359,34.0544 L129.359,31.7232 Z M120.155,26.2836 C120.155,26.888 120.257,27.4708 120.463,28.032 C120.668,28.5933 120.97,29.0897 121.37,29.5214 C121.77,29.9532 122.251,30.2985 122.812,30.5576 C123.374,30.8166 124.012,30.9461 124.725,30.9461 C125.438,30.9461 126.075,30.8166 126.637,30.5576 C127.199,30.2985 127.679,29.9532 128.079,29.5214 C128.479,29.0897 128.781,28.5933 128.987,28.032 C129.192,27.4708 129.295,26.888 129.295,26.2836 C129.295,25.6792 129.192,25.0964 128.987,24.5352 C128.781,23.9739 128.479,23.4775 128.079,23.0458 C127.679,22.6141 127.199,22.2687 126.637,22.0097 C126.075,21.7506 125.438,21.6211 124.725,21.6211 C124.012,21.6211 123.374,21.7506 122.812,22.0097 C122.251,22.2687 121.77,22.6141 121.37,23.0458 C120.97,23.4775 120.668,23.9739 120.463,24.5352 C120.257,25.0964 120.155,25.6792 120.155,26.2836 Z M146.44,11.1305 L154.154,11.1305 C155.256,11.1305 156.32,11.2384 157.346,11.4543 C158.372,11.6702 159.274,12.0317 160.052,12.539 C160.83,13.0462 161.451,13.7262 161.916,14.5788 C162.38,15.4315 162.613,16.4945 162.613,17.7681 C162.613,19.2143 162.364,20.3799 161.867,21.265 C161.37,22.15 160.701,22.8353 159.858,23.321 C159.015,23.8067 158.037,24.1358 156.925,24.3085 C155.812,24.4812 154.651,24.5676 153.441,24.5676 L150.524,24.5676 L150.524,34.0544 L146.44,34.0544 L146.44,11.1305 Z M152.987,21.0707 C153.57,21.0707 154.175,21.0491 154.802,21.0059 C155.428,20.9628 156.006,20.8332 156.536,20.6174 C157.065,20.4015 157.497,20.0777 157.832,19.646 C158.167,19.2143 158.335,18.6099 158.335,17.8328 C158.335,17.1205 158.183,16.5539 157.881,16.133 C157.578,15.7121 157.189,15.3883 156.714,15.1616 C156.239,14.935 155.709,14.7893 155.126,14.7245 C154.542,14.6598 153.981,14.6274 153.441,14.6274 L150.524,14.6274 L150.524,21.0707 L152.987,21.0707 Z M165.4,18.5128 L169.289,18.5128 L169.289,20.9735 L169.354,20.9735 C169.786,20.0669 170.402,19.3654 171.202,18.869 C172.001,18.3725 172.919,18.1243 173.956,18.1243 C174.194,18.1243 174.426,18.1458 174.653,18.189 C174.88,18.2322 175.112,18.2861 175.35,18.3509 L175.35,22.1068 C175.026,22.0205 174.707,21.9503 174.394,21.8963 C174.081,21.8424 173.773,21.8154 173.47,21.8154 C172.563,21.8154 171.834,21.9827 171.283,22.3173 C170.732,22.6518 170.31,23.035 170.019,23.4667 C169.727,23.8984 169.532,24.3301 169.435,24.7618 C169.338,25.1935 169.289,25.5173 169.289,25.7332 L169.289,34.0544 L165.4,34.0544 L165.4,18.5128 Z M176.16,26.2836 C176.16,25.0532 176.382,23.9362 176.825,22.9324 C177.268,21.9287 177.867,21.0707 178.624,20.3584 C179.38,19.646 180.277,19.0956 181.314,18.7071 C182.351,18.3185 183.453,18.1243 184.62,18.1243 C185.786,18.1243 186.888,18.3185 187.926,18.7071 C188.963,19.0956 189.859,19.646 190.616,20.3584 C191.372,21.0707 191.971,21.9287 192.414,22.9324 C192.857,23.9362 193.079,25.0532 193.079,26.2836 C193.079,27.514 192.857,28.631 192.414,29.6348 C191.971,30.6385 191.372,31.4965 190.616,32.2089 C189.859,32.9212 188.963,33.4716 187.926,33.8602 C186.888,34.2487 185.786,34.443 184.62,34.443 C183.453,34.443 182.351,34.2487 181.314,33.8602 C180.277,33.4716 179.38,32.9212 178.624,32.2089 C177.867,31.4965 177.268,30.6385 176.825,29.6348 C176.382,28.631 176.16,27.514 176.16,26.2836 Z M180.05,26.2836 C180.05,26.888 180.152,27.4708 180.358,28.032 C180.563,28.5933 180.865,29.0897 181.265,29.5214 C181.665,29.9532 182.146,30.2985 182.707,30.5576 C183.269,30.8166 183.907,30.9461 184.62,30.9461 C185.333,30.9461 185.97,30.8166 186.532,30.5576 C187.094,30.2985 187.574,29.9532 187.974,29.5214 C188.374,29.0897 188.676,28.5933 188.882,28.032 C189.087,27.4708 189.19,26.888 189.19,26.2836 C189.19,25.6792 189.087,25.0964 188.882,24.5352 C188.676,23.9739 188.374,23.4775 187.974,23.0458 C187.574,22.6141 187.094,22.2687 186.532,22.0097 C185.97,21.7506 185.333,21.6211 184.62,21.6211 C183.907,21.6211 183.269,21.7506 182.707,22.0097 C182.146,22.2687 181.665,22.6141 181.265,23.0458 C180.865,23.4775 180.563,23.9739 180.358,24.5352 C180.152,25.0964 180.05,25.6792 180.05,26.2836 Z M194.408,21.8154 L194.408,18.5128 L197.616,18.5128 L197.616,14.0122 L201.506,14.0122 L201.506,18.5128 L205.784,18.5128 L205.784,21.8154 L201.506,21.8154 L201.506,28.6148 C201.506,29.3919 201.651,30.0071 201.943,30.4604 C202.235,30.9137 202.813,31.1404 203.677,31.1404 C204.023,31.1404 204.401,31.1026 204.811,31.027 C205.222,30.9515 205.546,30.8274 205.784,30.6547 L205.784,33.9249 C205.373,34.1192 204.871,34.2541 204.277,34.3296 C203.682,34.4052 203.159,34.443 202.705,34.443 C201.668,34.443 200.82,34.3296 200.161,34.103 C199.502,33.8763 198.983,33.531 198.605,33.0669 C198.227,32.6028 197.967,32.0254 197.827,31.3346 C197.687,30.6439 197.616,29.8452 197.616,28.9386 L197.616,21.8154 L194.408,21.8154 Z M207.566,26.2836 C207.566,25.0532 207.788,23.9362 208.231,22.9324 C208.674,21.9287 209.273,21.0707 210.03,20.3584 C210.786,19.646 211.683,19.0956 212.72,18.7071 C213.757,18.3185 214.859,18.1243 216.026,18.1243 C217.192,18.1243 218.294,18.3185 219.331,18.7071 C220.369,19.0956 221.265,19.646 222.022,20.3584 C222.778,21.0707 223.377,21.9287 223.82,22.9324 C224.263,23.9362 224.485,25.0532 224.485,26.2836 C224.485,27.514 224.263,28.631 223.82,29.6348 C223.377,30.6385 222.778,31.4965 222.022,32.2089 C221.265,32.9212 220.369,33.4716 219.331,33.8602 C218.294,34.2487 217.192,34.443 216.026,34.443 C214.859,34.443 213.757,34.2487 212.72,33.8602 C211.683,33.4716 210.786,32.9212 210.03,32.2089 C209.273,31.4965 208.674,30.6385 208.231,29.6348 C207.788,28.631 207.566,27.514 207.566,26.2836 Z M211.456,26.2836 C211.456,26.888 211.558,27.4708 211.764,28.032 C211.969,28.5933 212.271,29.0897 212.671,29.5214 C213.071,29.9532 213.552,30.2985 214.113,30.5576 C214.675,30.8166 215.313,30.9461 216.026,30.9461 C216.739,30.9461 217.376,30.8166 217.938,30.5576 C218.5,30.2985 218.98,29.9532 219.38,29.5214 C219.78,29.0897 220.082,28.5933 220.288,28.032 C220.493,27.4708 220.595,26.888 220.595,26.2836 C220.595,25.6792 220.493,25.0964 220.288,24.5352 C220.082,23.9739 219.78,23.4775 219.38,23.0458 C218.98,22.6141 218.5,22.2687 217.938,22.0097 C217.376,21.7506 216.739,21.6211 216.026,21.6211 C215.313,21.6211 214.675,21.7506 214.113,22.0097 C213.552,22.2687 213.071,22.6141 212.671,23.0458 C212.271,23.4775 211.969,23.9739 211.764,24.5352 C211.558,25.0964 211.456,25.6792 211.456,26.2836 Z M238.259,23.1753 C237.806,22.7004 237.33,22.3226 236.833,22.042 C236.336,21.7614 235.829,21.6211 235.31,21.6211 C234.597,21.6211 233.959,21.7506 233.398,22.0097 C232.836,22.2687 232.355,22.6141 231.955,23.0458 C231.556,23.4775 231.253,23.9739 231.048,24.5352 C230.843,25.0964 230.74,25.6792 230.74,26.2836 C230.74,26.888 230.843,27.4708 231.048,28.032 C231.253,28.5933 231.556,29.0897 231.955,29.5214 C232.355,29.9532 232.836,30.2985 233.398,30.5576 C233.959,30.8166 234.597,30.9461 235.31,30.9461 C235.915,30.9461 236.477,30.822 236.995,30.5737 C237.514,30.3255 237.957,29.964 238.324,29.4891 L240.917,32.2736 C240.528,32.6622 240.08,32.9967 239.572,33.2773 C239.064,33.558 238.551,33.7846 238.032,33.9573 C237.514,34.13 237.017,34.2541 236.542,34.3296 C236.066,34.4052 235.656,34.443 235.31,34.443 C234.143,34.443 233.041,34.2487 232.004,33.8602 C230.967,33.4716 230.07,32.9212 229.314,32.2089 C228.558,31.4965 227.958,30.6385 227.515,29.6348 C227.072,28.631 226.851,27.514 226.851,26.2836 C226.851,25.0532 227.072,23.9362 227.515,22.9324 C227.958,21.9287 228.558,21.0707 229.314,20.3584 C230.07,19.646 230.967,19.0956 232.004,18.7071 C233.041,18.3185 234.143,18.1243 235.31,18.1243 C236.304,18.1243 237.303,18.3131 238.308,18.6909 C239.313,19.0686 240.193,19.6676 240.949,20.4879 L238.259,23.1753 Z M241.987,26.2836 C241.987,25.0532 242.208,23.9362 242.651,22.9324 C243.094,21.9287 243.693,21.0707 244.45,20.3584 C245.206,19.646 246.103,19.0956 247.14,18.7071 C248.177,18.3185 249.279,18.1243 250.446,18.1243 C251.613,18.1243 252.714,18.3185 253.752,18.7071 C254.789,19.0956 255.685,19.646 256.442,20.3584 C257.198,21.0707 257.798,21.9287 258.24,22.9324 C258.683,23.9362 258.905,25.0532 258.905,26.2836 C258.905,27.514 258.683,28.631 258.24,29.6348 C257.798,30.6385 257.198,31.4965 256.442,32.2089 C255.685,32.9212 254.789,33.4716 253.752,33.8602 C252.714,34.2487 251.613,34.443 250.446,34.443 C249.279,34.443 248.177,34.2487 247.14,33.8602 C246.103,33.4716 245.206,32.9212 244.45,32.2089 C243.693,31.4965 243.094,30.6385 242.651,29.6348 C242.208,28.631 241.987,27.514 241.987,26.2836 Z M245.876,26.2836 C245.876,26.888 245.978,27.4708 246.184,28.032 C246.389,28.5933 246.691,29.0897 247.091,29.5214 C247.491,29.9532 247.972,30.2985 248.534,30.5576 C249.095,30.8166 249.733,30.9461 250.446,30.9461 C251.159,30.9461 251.796,30.8166 252.358,30.5576 C252.92,30.2985 253.4,29.9532 253.8,29.5214 C254.2,29.0897 254.502,28.5933 254.708,28.032 C254.913,27.4708 255.016,26.888 255.016,26.2836 C255.016,25.6792 254.913,25.0964 254.708,24.5352 C254.502,23.9739 254.2,23.4775 253.8,23.0458 C253.4,22.6141 252.92,22.2687 252.358,22.0097 C251.796,21.7506 251.159,21.6211 250.446,21.6211 C249.733,21.6211 249.095,21.7506 248.534,22.0097 C247.972,22.2687 247.491,22.6141 247.091,23.0458 C246.691,23.4775 246.389,23.9739 246.184,24.5352 C245.978,25.0964 245.876,25.6792 245.876,26.2836 Z M262.114,9.57635 L266.003,9.57635 L266.003,34.0544 L262.114,34.0544 L262.114,9.57635 Z" id="Shape" fill="#7C89A0"></path></g></g></svg> 