<?xml version="1.0" encoding="UTF-8"?> <svg xmlns="http://www.w3.org/2000/svg" xmlns:xlink="http://www.w3.org/1999/xlink" width="40px" height="40px" viewBox="0 0 40 40" version="1.1"><title>Blog</title><g id="Page-1" stroke="none" stroke-width="1" fill="none" fill-rule="evenodd"><g id="ecosystem-menu" transform="translate(-413.000000, -65.000000)" fill-rule="nonzero"><g id="Blog" transform="translate(413.000000, 65.000000)"><circle id="Oval" fill="#1969FF" cx="20.0080808" cy="19.9636364" r="19.6080808"></circle><path d="M20.9604268,10.4341166 L30.3428052,19.8164951 L20.3633144,29.7959859 L20.2696199,29.7028117 L11.1070707,31.6080808 L10.9445832,31.6355637 L10.9445832,31.6355637 L10.7818489,31.6463279 C10.3486113,31.6530468 9.92533866,31.4851089 9.61281672,31.1719318 C9.2221643,30.7804604 9.05881,30.2164167 9.17979798,29.6767677 L11.0796199,20.5118117 L10.9809359,20.4136075 L20.9604268,10.4341166 Z M25.5984926,8.90681647 L31.8838862,15.1922101 C32.7012259,16.0095498 32.7012259,17.3347193 31.8838862,18.1520591 L30.3982477,19.6376976 L21.1530051,10.392455 L22.6386436,8.90681647 C23.4559833,8.08947674 24.7811528,8.08947674 25.5984926,8.90681647 Z" id="Combined-Shape" fill="#FFFFFF"></path></g></g></g></svg> 