<?xml version="1.0" encoding="UTF-8"?> <svg xmlns="http://www.w3.org/2000/svg" xmlns:xlink="http://www.w3.org/1999/xlink" width="601px" height="185px" viewBox="0 0 601 185" version="1.1"><title>chainlink-logo_grey</title><g id="Page-1" stroke="none" stroke-width="1" fill="none" fill-rule="evenodd"><g id="chainlink-logo_grey" fill="#7C89A0" fill-rule="nonzero"><path d="M206.7,91.4 C206,73.4 220.1,58.3 238.1,57.6 L239.4,57.6 C256,57.6 265.8,67.3 268.7,78.7 L258.3,82.2 C256.4,73.4 248.3,67.3 239.4,68 C228.7,68 217.9,75.8 217.9,91.6 C217.9,107.4 228.4,114.9 239.5,114.9 C248.5,115.1 256.5,109.2 258.9,100.6 L269,103.9 C265.4,117.1 253.1,126.1 239.4,125.4 C221.6,125.7 206.9,111.6 206.6,93.8 C206.6,93 206.6,92.2 206.7,91.4" id="Path"></path><path d="M289.2,123.9 L278.3,123.9 L278.3,57.4 L289.2,57.4 L289.2,83.5 C292.3,79.8 297,77.7 301.9,77.9 C312.9,77.9 318.3,85.8 318.3,95.6 L318.3,123.9 L307.7,123.9 L307.7,97.4 C308.4,92.7 305.1,88.3 300.4,87.6 C300.4,87.6 300.4,87.6 300.4,87.6 C299.8,87.5 299.1,87.5 298.5,87.6 C293.4,87.6 289.2,91.8 289.2,96.9 C289.2,97.2 289.2,97.4 289.2,97.7 L289.2,123.9 Z" id="Path"></path><path d="M341.9,98.3 L353.4,96.5 C356,96.2 356.7,94.8 356.7,93.3 C356.7,89.5 354.2,86.5 348.2,86.5 C343.6,86.1 339.5,89.5 339,94.1 L339,94.5 L329.3,92.3 C330.1,84.6 337.1,77.7 348.1,77.7 C361.9,77.7 367.1,85.5 367.1,94.6 L367.1,116.8 C367.1,119.2 367.2,121.6 367.7,124 L357.8,124 C357.4,122.1 357.3,120.2 357.4,118.3 C354.4,122.9 349.1,125.6 343.6,125.4 C335.9,126 329.2,120.4 328.4,112.7 L328.4,112 C328.3,103.7 334.2,99.4 341.9,98.3 M356.6,105.5 L356.6,103.5 L344.9,105.2 C341.6,105.3 339,108 338.9,111.3 C338.9,114.6 341.6,117.2 344.9,117.1 L344.9,117.1 L345.4,117.1 C351,117.8 356.1,113.7 356.7,108.1 C356.7,108 356.7,108 356.7,107.9 C356.9,107.1 356.8,106.3 356.6,105.5 L356.6,105.5 Z" id="Shape"></path><path d="M385.2,56.5 C389,56.5 392.2,59.5 392.3,63.4 C392.3,67.2 389.2,70.3 385.4,70.4 C381.6,70.4 378.5,67.3 378.4,63.5 C378.3,59.6 381.4,56.5 385.2,56.5 M380,124.1 L380,79.2 L390.7,79.2 L390.7,123.9 L380,124.1 Z" id="Shape"></path><path d="M414.9,123.9 L404.2,123.9 L404.2,79.2 L414.6,79.2 L414.6,85.2 C417.4,80.6 422.4,77.8 427.8,77.9 C438.7,77.9 443.9,85.8 443.9,95.6 L443.9,123.9 L433.3,123.9 L433.3,97.4 C433.3,91.9 430.8,87.5 424.1,87.5 C418.9,87.5 414.7,91.8 414.7,97 C414.7,97.4 414.7,97.7 414.7,98.1 L414.9,123.9 Z" id="Path"></path><rect id="Rectangle" x="457" y="57.4" width="10.6" height="66.5"></rect><path d="M486.7,56.5 C490.5,56.5 493.6,59.6 493.7,63.4 C493.7,67.2 490.6,70.3 486.8,70.4 C483,70.4 479.9,67.3 479.8,63.5 L479.8,63.4 C479.8,59.6 482.8,56.5 486.7,56.5 M481.4,124.1 L481.4,79.2 L492,79.2 L492,123.9 L481.4,124.1 Z" id="Shape"></path><path d="M516.4,123.9 L505.8,123.9 L505.8,79.2 L516.2,79.2 L516.2,85.2 C519,80.6 524,77.8 529.4,77.9 C540.3,77.9 545.6,85.8 545.6,95.6 L545.6,123.9 L535,123.9 L535,97.4 C535.7,92.7 532.4,88.3 527.7,87.6 C527.7,87.6 527.7,87.6 527.7,87.6 C527.1,87.5 526.4,87.5 525.8,87.6 C520.6,87.6 516.4,91.8 516.5,97 C516.5,97.4 516.5,97.8 516.5,98.1 L516.4,123.9 Z" id="Path"></path><polygon id="Path" points="581.9 98 600.7 123.9 587.6 123.9 574.5 105.4 569 111.2 569 123.9 558.4 123.9 558.4 57.4 569 57.4 569 97.2 586.2 79.2 600.3 79.2"></polygon><path d="M80.5,39.4 L126.6,65.9 L126.6,119 L80.7,145.6 L34.6,119.4 L34.6,66.1 L80.5,39.4 Z M80.5,0.4 L63.6,10.2 L17.6,36.9 L0.7,46.7 L0.7,138.8 L17.6,148.5 L63.7,174.9 L80.6,184.6 L97.5,174.8 L143.4,148.1 L160.3,138.3 L160.3,46.1 L143.4,36.4 L97.3,9.9 L80.5,0.4 L80.5,0.4 Z" id="Shape"></path></g></g></svg> 