<?xml version="1.0" encoding="UTF-8"?> <svg xmlns="http://www.w3.org/2000/svg" xmlns:xlink="http://www.w3.org/1999/xlink" width="40px" height="40px" viewBox="0 0 40 40" version="1.1"><title>Community Copy</title><g id="Page-1" stroke="none" stroke-width="1" fill="none" fill-rule="evenodd"><g id="ecosystem-menu" transform="translate(-413.000000, -246.000000)"><g id="Community-Copy" transform="translate(413.000000, 246.000000)"><circle id="Oval" fill="#1969FF" fill-rule="nonzero" cx="20.0734694" cy="20.0897959" r="19.8081633"></circle><g id="Group-49" transform="translate(5.000000, 5.000000)"><circle id="Oval" fill="#FFFFFF" fill-rule="nonzero" cx="14.8210361" cy="14.6420722" r="14.6420722"></circle><circle id="Oval" fill="#FFFFFF" fill-rule="nonzero" cx="14.9293564" cy="14.6420722" r="12.188383"></circle><path d="M25.6436421,4.74254317 C22.8766732,7.77550724 18.9638039,9.50795345 14.8583331,9.51784522 C10.7528623,9.52765255 6.83172532,7.81400112 4.05023548,4.79434851" id="Path" stroke="#1969FF" stroke-width="1.17739403" stroke-linejoin="round"></path><path d="M25.6436421,25.0784929 C22.8781723,22.0428934 18.9647525,20.3085597 14.8583439,20.2986657 C10.7519354,20.2888561 6.83023892,22.0043923 4.05023548,25.0266876" id="Path" stroke="#1969FF" stroke-width="1.17739403" stroke-linejoin="round"></path><path d="M13.66719,0.12244898 C9.33286398,3.7132105 6.80877586,9.03724336 6.77237049,14.6656201 C6.8102265,20.257095 9.3039198,25.5493046 13.5918367,29.1381476" id="Path" stroke="#1969FF" stroke-width="1.17739403" stroke-linejoin="round"></path><path d="M16.0172684,0.12244898 C20.3482631,3.71533474 22.8701959,9.03845741 22.9073783,14.6656201 C22.871442,20.2575313 20.3773876,25.5505073 16.0879121,29.1381476" id="Path" stroke="#1969FF" stroke-width="1.17739403" stroke-linejoin="round"></path><line x1="3.52538511e-13" y1="14.6420722" x2="29.4678179" y2="14.6420722" id="Path" stroke="#1969FF" stroke-width="1.17739403" stroke-linejoin="round"></line><line x1="14.8257457" y1="0.141287284" x2="14.8257457" y2="28.8744113" id="Path" stroke="#1969FF" stroke-width="1.17739403" stroke-linejoin="round"></line></g></g></g></g></svg> 