<?xml version="1.0" encoding="UTF-8"?> <svg xmlns="http://www.w3.org/2000/svg" xmlns:xlink="http://www.w3.org/1999/xlink" width="40px" height="40px" viewBox="0 0 40 40" version="1.1"><title>FantomWallet</title><defs><circle id="path-1" cx="19.8489796" cy="20.0938776" r="19.8081633"></circle></defs><g id="Page-1" stroke="none" stroke-width="1" fill="none" fill-rule="evenodd"><g id="tools-menu" transform="translate(-51.000000, -115.000000)"><g id="FantomWallet" transform="translate(51.000000, 115.000000)"><mask id="mask-2" fill="white"><use xlink:href="#path-1"></use></mask><use id="Oval" fill="#1969FF" fill-rule="nonzero" xlink:href="#path-1"></use><path d="M30.6653061,9 C33.0592914,9 35,10.9407086 35,13.3346939 L35,26.6653061 C35,29.0592914 33.0592914,31 30.6653061,31 L9.33469388,31 C6.94070855,31 5,29.0592914 5,26.6653061 L5,13.3346939 C5,10.9407086 6.94070855,9 9.33469388,9 L30.6653061,9 Z M26.5976965,16.8319365 C24.9408423,16.8319365 23.5976965,18.1750822 23.5976965,19.8319365 C23.5976965,21.4887907 24.9408423,22.8319365 26.5976965,22.8319365 C28.2545508,22.8319365 29.5976965,21.4887907 29.5976965,19.8319365 C29.5976965,18.1750822 28.2545508,16.8319365 26.5976965,16.8319365 Z" id="Combined-Shape" fill="#FFFFFF" fill-rule="nonzero" mask="url(#mask-2)"></path></g></g></g></svg> 