<?xml version="1.0" encoding="UTF-8"?> <svg xmlns="http://www.w3.org/2000/svg" xmlns:xlink="http://www.w3.org/1999/xlink" width="40px" height="40px" viewBox="0 0 40 40" version="1.1"><title>Fantom DeFi Copy</title><defs><circle id="path-1" cx="20.0653061" cy="19.8163265" r="19.8081633"></circle></defs><g id="Page-1" stroke="none" stroke-width="1" fill="none" fill-rule="evenodd"><g id="technology-menu" transform="translate(-390.000000, -67.000000)"><g id="Fantom-DeFi-Copy" transform="translate(390.000000, 67.000000)"><mask id="mask-2" fill="white"><use xlink:href="#path-1"></use></mask><use id="Oval" fill="#1969FF" fill-rule="nonzero" xlink:href="#path-1"></use><g id="Group-45" mask="url(#mask-2)" fill-rule="nonzero"><g transform="translate(-30.000000, 8.000000)" id="Combined-Shape"><path d="M38.2285714,1.16173737e-12 C41.5422799,1.16112865e-12 44.2285714,2.6862915 44.2285714,6 L44.2285714,16.8979592 C44.2285714,20.2116677 41.5422799,22.8979592 38.2285714,22.8979592 L6,22.8979592 C2.6862915,22.8979592 3.28143649e-13,20.2116677 3.26849658e-13,16.8979592 L3.26849658e-13,6 C3.27332025e-13,2.6862915 2.6862915,1.16234609e-12 6,1.16173737e-12 L38.2285714,1.16173737e-12 Z M34.3469388,8.96326531 C33.1026074,8.96326531 32.0938776,10.1803198 32.0938776,11.6816327 C32.0938776,13.1829455 33.1026074,14.4 34.3469388,14.4 C35.5912701,14.4 36.6,13.1829455 36.6,11.6816327 C36.6,10.1803198 35.5912701,8.96326531 34.3469388,8.96326531 Z" fill="#FFFFFF"></path><path d="M17.9433171,4.32227764 C16.0023725,5.93505083 14.7306122,8.62972895 14.7306122,11.6816327 C14.7306122,14.442667 15.7715079,16.9113234 17.4071145,18.5510042 L4.94693878,18.5510204 L4.94693878,4.32244898 L17.9433171,4.32227764 Z M39.2693878,4.32244898 L39.2693878,18.5510204 L26.9194161,18.5510042 C28.5550227,16.9113234 29.5959184,14.442667 29.5959184,11.6816327 C29.5959184,8.62972895 28.3241581,5.93505083 26.3832135,4.32227764 L39.2693878,4.32244898 Z M34.3469388,8.96326531 C33.1026074,8.96326531 32.0938776,10.1803198 32.0938776,11.6816327 C32.0938776,13.1829455 33.1026074,14.4 34.3469388,14.4 C35.5912701,14.4 36.6,13.1829455 36.6,11.6816327 C36.6,10.1803198 35.5912701,8.96326531 34.3469388,8.96326531 Z" fill="#A5CBFF"></path></g></g><path d="M26.5,8 C32.8512746,8 38,13.1487254 38,19.5 C38,25.8512746 32.8512746,31 26.5,31 C20.1487254,31 15,25.8512746 15,19.5 C15,13.1487254 20.1487254,8 26.5,8 Z M28.7596491,13.9820175 L25.1583333,13.9820175 L25.1583333,24.7960526 L28.7596491,24.7960526 L28.7596491,13.9820175 Z" id="Combined-Shape" fill="#A5CBFF" fill-rule="nonzero" mask="url(#mask-2)"></path></g></g></g></svg> 