<?xml version="1.0" encoding="UTF-8"?> <svg xmlns="http://www.w3.org/2000/svg" xmlns:xlink="http://www.w3.org/1999/xlink" width="40px" height="40px" viewBox="0 0 40 40" version="1.1"><title>FTMScan</title><g id="Home" stroke="none" stroke-width="1" fill="none" fill-rule="evenodd"><g id="tools-menu" transform="translate(-51.000000, -259.000000)"><g id="FTMScan" transform="translate(51.000000, 259.000000)"><circle id="Oval" fill="#1969FF" fill-rule="nonzero" cx="19.8081633" cy="19.8081633" r="19.8081633"></circle><g id="Group" transform="translate(6.000000, 5.000000)" stroke="#FFFFFF" stroke-linecap="round" stroke-linejoin="round" stroke-width="2.35294118"><g transform="translate(0.142353, -0.001765)" id="Path"><path d="M26.5023529,20.61 L26.5023529,8.83117647 C26.5015994,7.78061691 25.9412126,6.81002687 25.0317647,6.28411765 L14.7235294,0.394705882 C13.8124342,-0.13131516 12.6899187,-0.13131516 11.7788235,0.394705882 L1.47058824,6.28411765 C0.56114036,6.81002687 0.000753498736,7.78061691 0,8.83117647 L0,20.61 C0.000753498736,21.6605596 0.56114036,22.6311496 1.47058824,23.1570588 L11.7788235,29.0470588 C12.6899187,29.5730799 13.8124342,29.5730799 14.7235294,29.0470588 L25.03,23.1570588 C25.9401271,22.6315975 26.5012351,21.6609232 26.5023529,20.61 Z"></path><polyline points="0.397647059 7.3 13.2511765 14.7352941 26.1035294 7.3"></polyline><line x1="13.2511765" y1="29.5617647" x2="13.2511765" y2="14.7205882"></line></g></g></g></g></g></svg> 