<?xml version="1.0" encoding="UTF-8"?> <svg xmlns="http://www.w3.org/2000/svg" width="40" height="40" viewBox="0 0 40 40"><g fill="none" fill-rule="evenodd"><g fill-rule="nonzero"><g><g transform="translate(-51 -163) translate(51 161) translate(0 2)"><circle cx="20.073" cy="20.09" r="19.808" fill="#1969FF"></circle><g fill="#FFF"><path d="M20.397 12.165l.001-.098.002-.112c0-4.607-3.769-8.355-8.401-8.355C7.368 3.6 3.6 7.348 3.6 11.955c0 .074 0 .148.002.217.06 3.031 1.364 4.755 2.625 6.422 1.193 1.577 2.32 3.068 2.32 5.623v3.497c0 .201.165.365.367.365h.298C9.428 29.166 10.595 30 11.999 30s2.572-.834 2.789-1.921h.297c.202 0 .367-.164.367-.365v-3.496c0-2.556 1.127-4.046 2.32-5.624 1.262-1.667 2.565-3.39 2.625-6.422v-.007zM11.4 2.4c.331 0 .6-.14.6-.314V.314C12 .14 11.731 0 11.4 0c-.331 0-.6.14-.6.314v1.772c0 .174.269.314.6.314zM6.736 3.426c.046.112.13.174.216.174.042 0 .085-.015.124-.047.119-.096.16-.309.09-.475l-.702-1.704c-.069-.167-.22-.223-.34-.127-.119.096-.16.309-.09.475l.702 1.704zM1.374 6.464l1.703.703c.055.022.115.033.174.033.12 0 .238-.045.302-.124.096-.12.04-.271-.127-.34l-1.703-.703c-.167-.068-.38-.028-.476.091-.096.12-.04.271.127.34zM2.4 12.6c0-.331-.14-.6-.314-.6H.314C.14 12 0 12.269 0 12.6c0 .331.14.6.314.6h1.772c.174 0 .314-.269.314-.6zM3.077 16.833l-1.703.703c-.167.069-.223.221-.127.34.064.08.181.124.302.124.059 0 .119-.01.174-.033l1.703-.703c.167-.069.223-.221.127-.34-.096-.119-.31-.16-.476-.09zM16.925 3.554c.039.031.082.046.124.046.086 0 .17-.063.216-.174l.702-1.704c.068-.167.027-.38-.092-.475-.12-.097-.271-.04-.34.128l-.702 1.703c-.068.167-.027.38.092.476zM20.749 7.2c.059 0 .119-.01.174-.033l1.703-.703c.167-.069.223-.221.127-.34-.096-.119-.309-.16-.476-.09l-1.703.702c-.167.069-.223.221-.127.34.064.08.181.124.302.124zM23.686 12h-1.772c-.174 0-.314.269-.314.6 0 .331.14.6.314.6h1.772c.174 0 .314-.269.314-.6 0-.331-.14-.6-.314-.6zM22.626 17.536l-1.703-.703c-.167-.068-.38-.028-.476.091-.096.119-.04.271.127.34l1.703.703c.055.022.115.033.174.033.12 0 .238-.045.302-.124.096-.119.04-.271-.127-.34z" transform="matrix(-1 0 0 1 32 5)"></path></g></g></g></g></g></svg> 