<?xml version="1.0" encoding="UTF-8"?> <svg xmlns="http://www.w3.org/2000/svg" width="40" height="40" viewBox="0 0 40 40"><g fill="none" fill-rule="evenodd"><g><g><g><g fill="#1969FF" fill-rule="nonzero" transform="translate(-51 -63) translate(51 61) translate(0 2)"><circle cx="20" cy="20" r="20"></circle></g><g><g transform="translate(-51 -63) translate(51 61) translate(0 2) translate(5 5) translate(.229)"><path fill="#FFF" fill-rule="nonzero" d="M29.078 14.797c0 1.865-.357 3.647-1.007 5.28-2.1 5.274-7.252 9.001-13.274 9.001-7.888 0-14.281-6.394-14.281-14.281 0-2.967.905-5.723 2.454-8.007.78-1.15 1.722-2.179 2.794-3.055C8.226 1.722 11.37.515 14.797.515c4.67 0 8.817 2.242 11.422 5.708 1.796 2.388 2.86 5.357 2.86 8.574z"></path><path fill="#1969FF" stroke="#1969FF" stroke-linecap="round" stroke-linejoin="round" stroke-width=".75" d="M19.306 6.207l-.035.374.39.522-.69.398-1.97.456-.32.868-.685.395-.182-.395.226-.4-.948-.518.16-.825.352-.63-.087-.244-.332-.135-.271-1.02-.853-.22-1.279.1-.423.48-1.653.795-.87 1.065-.17.908.315.297.345-.053.25-.468.418-.143.611-.365 1.554.942.053.261.105.568.453.98.053.509-.646.458-.594.157-.669-.07-.379.323-.25.362-.448.146-1.781-.08-.917.44.026.81-.562.811-.092.603.654.34.42.891.152 1.18.795.235.794.105.485.528.916.508.734 1.269.586.371 1.382.415.202.89-.756.675-1.292.508-.42.302-.085 1.33-.496.585-.099.827-.105.666-.68-.45-.56-.793-1.587-2.359-1.402-.975.65-1.376-.65-.32.405-.872.39-.42v-.908l-.687-.232-.314.25-.402-.088-1.775-1.449-.692-.198-.553-.623v-1.153l-.943-1.205.279-2.19 1.115-1.896-.085-.839.454-.558.55-.581-.125-.528v-.458h-.722L3.268 7.11l-.272-.18c.778-1.149 1.72-2.178 2.791-3.053l.098.172.47-.27.379-.46.496-.046.29.296-.207.763.905.075 2.235-1.013 1.536-.074.72.197.24-.035.385-.286 1.397.124.36.337.181.314 1.607.018.401.198.989-.181 1.072.576v.315l.663.666v.276l-.698.367zM29.078 14.926c0 1.856-.358 3.63-1.01 5.255l-.574-.37-.42.506-.842.091-1.042 1.383-.902 1.626-1.322-.081-1.516.587.026-1.631.657-1.617.362-.582-.493-.494-1.288.211-1.577-.342-.026-.741-.447-1.152.237-1.37 1.786-1.173 1.472-1.21-.157-1.139.798-.59.62-1.013-.62-.359-.142-.804-.42-.705-.368-.367.93-.781 1.383-.209.53.35.864-.496-.054-.235-.333-.507.36-.358h.437l.226-.216c1.8 2.377 2.865 5.331 2.865 8.533z"></path><ellipse cx="14.797" cy="14.849" rx="14.797" ry="14.849"></ellipse></g></g></g></g></g></g></svg> 