<?xml version="1.0" encoding="UTF-8"?> <svg xmlns="http://www.w3.org/2000/svg" xmlns:xlink="http://www.w3.org/1999/xlink" width="40px" height="40px" viewBox="0 0 40 40" version="1.1"><title>Intro to Fantom</title><defs><circle id="path-1" cx="20.1142857" cy="20.155102" r="19.8081633"></circle></defs><g id="Home" stroke="none" stroke-width="1" fill="none" fill-rule="evenodd"><g id="technology-menu" transform="translate(-51.000000, -65.000000)"><g id="Intro-to-Fantom" transform="translate(51.000000, 65.000000)"><mask id="mask-2" fill="white"><use xlink:href="#path-1"></use></mask><use id="Oval" fill="#19E1FF" fill-rule="nonzero" xlink:href="#path-1"></use><path d="M8.58161876,9.97896111 C9.79829839,9.3403463 11.6495908,9.3403463 12.8662704,9.97896111 L12.8662704,9.97896111 L25.2813759,16.4954426 C26.0138812,16.8799224 26.4162932,17.4527575 26.4886118,18.0441884 L26.5004947,18.0447954 L26.5004947,50.7998446 C26.4843185,51.4453483 26.0781034,52.0863684 25.2813759,52.5045574 L25.2813759,52.5045574 L12.8662704,59.0210389 C11.6495908,59.6596537 9.79829839,59.6596537 8.58161876,59.0210389 L8.58161876,59.0210389 L-3.83348668,52.5045574 C-4.62691118,52.0881021 -5.00768805,51.4425407 -5.02655013,50.7998446 C-5.02849398,50.7336109 -5.02865543,50.6790644 -5.02657638,50.6341331 L-5.02655013,18.0447954 C-4.96555194,17.4462025 -4.58139412,16.8880068 -3.83348668,16.4954426 L-3.83348668,16.4954426 Z M24.546,36.318 L12.8662704,42.4493144 C11.6495908,43.0879292 9.79829839,43.0879292 8.58161876,42.4493144 L8.58161876,42.4493144 L-3.073,36.331 L-3.073,50.735 L8.58161876,56.8200414 C9.2055695,57.1513065 9.85197393,57.4748675 10.4865851,57.5443403 L10.7239446,57.558001 C11.41989,57.5603178 12.0955243,57.2091257 12.7806934,56.8766831 L12.7806934,56.8766831 L24.546,50.682 L24.546,36.318 Z M-7.04584433,50.0877784 C-7.04584433,51.3427697 -6.8990742,52.1676223 -6.60766256,52.748729 C-6.36612587,53.2303795 -6.00371749,53.5984655 -5.3419836,54.0463467 L-5.30420609,54.071785 C-5.15898547,54.1690804 -4.9990078,54.2710209 -4.80427497,54.3908052 L-4.57463351,54.5305772 L-3.8694615,54.9534801 L-4.88086832,56.6151371 L-5.67013528,56.1414229 L-5.80279823,56.0604836 C-6.03101,55.9204958 -6.22015674,55.8002278 -6.39658771,55.6820219 C-8.28254697,54.4184599 -8.98591128,53.0408471 -8.99978997,50.1750768 L-9,50.0877784 L-7.04584433,50.0877784 Z M9.74455511,27.5400771 C9.65492729,27.5707561 9.57091491,27.6062113 9.49426647,27.6464428 L9.49426647,27.6464428 L-2.92083896,34.1629243 C-2.93386716,34.1697626 -2.94629174,34.176535 -2.95811877,34.1832197 L-2.95811877,34.1832197 L-2.96862879,34.1892802 L-2.94913636,34.2003702 L-2.92083896,34.215636 L9.49426647,40.7321175 C9.57091491,40.772349 9.65492729,40.8078042 9.74455511,40.8384832 Z M11.7033341,27.5400771 L11.7033341,40.8384832 C11.7929619,40.8078042 11.8769743,40.772349 11.9536227,40.7321175 L11.9536227,40.7321175 L24.3687281,34.215636 L24.3687281,34.215636 L24.4060079,34.1953406 L24.416518,34.1892802 L24.3970255,34.1781901 L24.3687281,34.1629243 L11.9536227,27.6464428 C11.8769743,27.6062113 11.7929619,27.5707561 11.7033341,27.5400771 Z M24.546,20.368 L13.409,26.214 L24.546,32.059 L24.546,20.368 Z M-3.073,20.381 L-3.073,32.046 L8.038,26.214 L-3.073,20.381 Z M11.9536227,11.696158 C11.307996,11.3572793 10.1398932,11.3572793 9.49426647,11.696158 L9.49426647,11.696158 L-2.92083896,18.2126395 L-2.92083896,18.2126395 L-2.95811877,18.2329349 L-2.96862879,18.2389953 L-2.94913636,18.2500854 L-2.92083896,18.2653512 L9.49426647,24.7818327 C10.1398932,25.1207114 11.307996,25.1207114 11.9536227,24.7818327 L11.9536227,24.7818327 L24.3687281,18.2653512 L24.3687281,18.2653512 L24.4060079,18.2450558 L24.416518,18.2389953 L24.3970255,18.2279053 L24.3687281,18.2126395 Z M26.3808683,12.4107562 L27.1701353,12.8844704 L27.3027982,12.9654097 C27.53101,13.1053975 27.7201567,13.2256655 27.8965877,13.3438714 C29.782547,14.6074334 30.4859113,15.9850463 30.49979,18.8508165 L30.5,18.938115 L28.5458443,18.938115 C28.5458443,17.6831236 28.3990742,16.858271 28.1076626,16.2771644 C27.8661259,15.7955138 27.5037175,15.4274278 26.8419836,14.9795466 L26.8042061,14.9541083 C26.6589855,14.8568129 26.4990078,14.7548724 26.304275,14.6350881 L26.0746335,14.4953162 L25.3694615,14.0724132 L26.3808683,12.4107562 Z" id="Combined-Shape" fill="#FFFFFF" fill-rule="nonzero" mask="url(#mask-2)"></path></g></g></g></svg> 