<?xml version="1.0" encoding="UTF-8"?> <svg xmlns="http://www.w3.org/2000/svg" xmlns:xlink="http://www.w3.org/1999/xlink" width="141px" height="60px" viewBox="0 0 141 60" version="1.1"><title>logo-wordmark.a6830241</title><g id="Page-1" stroke="none" stroke-width="1" fill="none" fill-rule="evenodd"><g id="logo-wordmark.a6830241" fill="#7C89A0" fill-rule="nonzero"><path d="M114.319626,26.7813084 C116.080374,29.0242991 116.97757,32.1420561 116.97757,36.1345794 L100.373832,36.1345794 C100.547664,38.1925234 101.102804,39.7850467 102.056075,40.8560748 C103.105444,41.9780505 104.599004,42.5758854 106.13271,42.4878505 C107.427063,42.5453273 108.705394,42.1834612 109.77757,41.4560748 C110.635019,40.7192979 111.310548,39.7942838 111.751402,38.753271 L116.635514,38.753271 C116.15999,40.7590039 115.081759,42.571058 113.545794,43.9457944 C111.47798,45.6633695 108.853133,46.5649126 106.166355,46.4803738 C102.863551,46.4803738 100.24486,45.4485981 98.3158879,43.435514 C96.2579439,41.3327103 95.2261682,38.4560748 95.2261682,34.7663551 C95.2261682,31.4635514 96.1682243,28.7158879 98.1420561,26.4841121 C100.031776,24.2074766 102.628037,23.1196262 105.953271,23.1196262 C109.603738,23.0915888 112.390654,24.2971963 114.319626,26.7813084 Z M102.263551,28.4635514 C101.264164,29.5756096 100.635147,30.9708123 100.463551,32.4560748 L111.874766,32.4560748 C111.448598,28.8504673 109.514019,27.0953271 106.082243,27.0953271 C104.675594,27.0012742 103.292911,27.4946546 102.263551,28.4579439 L102.263551,28.4635514 Z" id="Shape"></path><path d="M140.747664,32.1925234 L140.747664,45.8747664 L135.857944,45.8747664 L135.857944,32.6186916 C135.857944,28.9682243 134.175701,27.1682243 130.811215,27.1682243 C129.62431,27.1613274 128.483047,27.6250917 127.637383,28.4579439 C126.557915,29.5435196 125.923802,30.993779 125.859813,32.5233645 L125.859813,45.8691589 L120.970093,45.8691589 L120.970093,23.6971963 L125.859813,23.6971963 L125.859813,26.271028 C126.651986,25.2848604 127.646265,24.4798762 128.775701,23.9102804 C129.909165,23.3545579 131.158375,23.075888 132.420561,23.0971963 C137.943925,23.0915888 140.747664,26.0971963 140.747664,32.1925234 Z" id="Path"></path><path d="M93.8018692,45.8803738 L85.0261682,33.1514019 C86.652905,32.9165784 88.1950492,32.2785163 89.5121495,31.2953271 C91.4018692,29.753271 92.388785,27.5214953 92.388785,24.6 C92.388785,24.5046729 92.388785,24.4149533 92.388785,24.3196262 C92.388785,24.2242991 92.388785,24.1345794 92.388785,24.0392523 C92.388785,21.1233645 91.4018692,18.8915888 89.5121495,17.3439252 C87.7121495,15.9308411 85.2224299,15.2411215 82.0878505,15.2411215 L68.411215,15.2411215 L68.411215,45.8747664 L73.4579439,45.8747664 L73.4579439,33.3925234 L78.8242991,33.3925234 L87.3925234,45.8803738 L93.8018692,45.8803738 Z M73.4579439,19.5308411 L81.3981308,19.5308411 C83.3719626,19.5308411 84.8747664,19.9626168 85.8841121,20.7757009 C86.8446163,21.6953242 87.3599624,22.9857359 87.2971963,24.3140187 C87.3599624,25.6423014 86.8446163,26.9327131 85.8841121,27.8523364 C84.8523364,28.6654206 83.3551402,29.0971963 81.3981308,29.0971963 L73.4579439,29.0971963 L73.4579439,19.5308411 Z" id="Shape"></path><polygon id="Path" points="8.20373832 12.6168224 12.6168224 10.082243 13.211215 11.1028037 29.4785047 1.72149533 28.2897196 1.03738318 27.0953271 0.342056075 26.5009346 0 0 15.3084112 0 15.9925234 7.60934579 11.5906542"></polygon><polygon id="Path" points="8.20373832 22.2560748 20.9551402 14.8878505 21.5495327 15.9252336 37.8168224 6.53831776 36.6280374 5.84299065 35.4336449 5.1588785 34.8392523 4.82242991 0 24.9364486 0 25.6205607 7.60934579 21.2186916"></polygon><polygon id="Path" points="8.20373832 27.0728972 25.1214953 17.3046729 25.7214953 18.3308411 41.9831776 8.93271028 40.7943925 8.25981308 39.6056075 7.56448598 39.0056075 7.22242991 0 29.7420561 0 30.4373832 7.60934579 26.0411215"></polygon><polygon id="Path" points="8.20373832 31.8841121 29.411215 19.6429907 30.011215 20.6691589 46.1551402 11.3495327 44.9663551 10.6542056 43.7719626 9.97009346 43.1775701 9.62803738 0 34.564486 0 35.2485981 7.60934579 30.846729"></polygon><polygon id="Path" points="8.20373832 36.6897196 33.5831776 22.0429907 34.1775701 23.0803738 50.3214953 13.7495327 49.1327103 13.071028 47.9439252 12.3757009 47.3439252 12.0336449 0 39.3700935 0 40.0542056 7.60934579 35.6635514"></polygon><polygon id="Path" points="52.1102804 14.7869159 51.5158879 14.4392523 0 44.1925234 0 44.8766355 7.60934579 40.4859813 8.20373832 41.5121495 33.5831776 26.8654206 34.1775701 27.8915888 53.0018692 17.0299065 53.0018692 15.6504673 53.0018692 15.3084112"></polygon><polygon id="Path" points="3.2635514 47.7981308 7.53084112 45.3364486 8.12523364 46.3626168 33.4598131 31.7383178 34.0542056 32.7757009 53.0018692 21.835514 53.0018692 20.4560748 53.0018692 19.0766355 53.0018692 18.3925234 2.68037383 47.4560748"></polygon><polyline id="Path" points="33.4598131 36.5607477 34.0542056 37.5981308 53.0018692 26.6579439 53.0018692 25.2785047 53.0018692 23.8990654 53.0018692 23.2149533 6.84672897 49.8616822 7.44672897 50.2037383 11.7757009 47.6971963 12.3757009 48.7345794"></polyline><polygon id="Path" points="11.6130841 52.6149533 15.9476636 50.1028037 16.5420561 51.1401869 33.4598131 41.3663551 34.0542056 42.4037383 53.0018692 31.4635514 53.0018692 30.0841121 53.0018692 28.7158879 53.0018692 28.0261682 11.0074766 52.2616822"></polygon><polygon id="Path" points="15.7794393 55.0205607 20.1140187 52.5196262 20.7140187 53.5457944 33.4598131 46.188785 34.0542056 47.2149533 53.0018692 36.2747664 53.0018692 34.9065421 53.0018692 33.5271028 53.0018692 32.8429907 15.1850467 54.6785047"></polygon><polygon id="Path" points="19.3570093 57.0841121 19.9514019 57.4261682 24.2971963 54.9196262 24.8803738 55.9570093 33.4598131 50.9943925 34.0542056 52.0317757 53.0018692 41.0915888 53.0018692 39.7121495 53.0018692 38.3327103 53.0018692 37.6485981"></polygon><polygon id="Path" points="24.117757 59.8429907 28.4523364 57.3252336 29.046729 58.3626168 33.4598131 55.8056075 34.0542056 56.8429907 53.0018692 45.9140187 53.0018692 44.5345794 53.0018692 43.1551402 53.0018692 42.471028 23.5233645 59.5009346"></polygon><polygon id="Path" points="33.6504673 4.1271028 32.4560748 3.44299065 32.4560748 3.44299065 31.2672897 2.7588785 30.6728972 2.40560748 0 20.1140187 0 20.7981308 7.60934579 16.4130841 8.20373832 17.4336449 16.7831776 12.482243 17.3943925 13.5196262"></polygon></g></g></svg> 