<?xml version="1.0" encoding="UTF-8"?> <svg xmlns="http://www.w3.org/2000/svg" xmlns:xlink="http://www.w3.org/1999/xlink" width="40px" height="40px" viewBox="0 0 40 40" version="1.1"><title>Opera chain</title><g id="Page-1" stroke="none" stroke-width="1" fill="none" fill-rule="evenodd"><g id="technology-menu" transform="translate(-390.000000, -257.000000)"><g id="Opera-chain" transform="translate(390.000000, 257.000000)"><circle id="Oval" fill="#1969FF" fill-rule="nonzero" cx="19.8163265" cy="20.0367347" r="19.8081633"></circle><g id="Group-48" transform="translate(4.000000, 4.000000)"><path d="M17.3107049,17.3163698 L28.0763833,22.5406804 C29.2688724,23.1193652 29.7664591,24.5551852 29.1877744,25.7476743 C28.9525579,26.2323824 28.5610914,26.6238489 28.0763833,26.8590655 L17.3107049,32.0833761 C16.6490659,32.4044528 15.8767412,32.4044528 15.2151022,32.0833761 L4.4494238,26.8590655 C3.2569347,26.2803808 2.75934793,24.8445607 3.33803265,23.6520716 C3.57324921,23.1673635 3.96471567,22.775897 4.4494238,22.5406804 L15.2151022,17.3163698 C15.8767412,16.9952931 16.6490659,16.9952931 17.3107049,17.3163698 Z" id="Rectangle" fill="#8DB5FF"></path><path d="M17.3107049,8.9124206 L28.0763833,14.1367313 C29.2688724,14.715416 29.7664591,16.151236 29.1877744,17.3437251 C28.9525579,17.8284333 28.5610914,18.2198997 28.0763833,18.4551163 L17.3107049,23.6794269 C16.6490659,24.0005036 15.8767412,24.0005036 15.2151022,23.6794269 L4.4494238,18.4551163 C3.2569347,17.8764316 2.75934793,16.4406115 3.33803265,15.2481224 C3.57324921,14.7634143 3.96471567,14.3719478 4.4494238,14.1367313 L15.2151022,8.9124206 C15.8767412,8.59134396 16.6490659,8.59134396 17.3107049,8.9124206 Z" id="Rectangle-Copy-27" fill="#E3EDFF" opacity="0.855212984"></path><path d="M17.3107049,0.508471423 L28.0763833,5.73278208 C29.2688724,6.31146679 29.7664591,7.74728685 29.1877744,8.93977595 C28.9525579,9.42448408 28.5610914,9.81595054 28.0763833,10.0511671 L17.3107049,15.2754778 C16.6490659,15.5965544 15.8767412,15.5965544 15.2151022,15.2754778 L4.4494238,10.0511671 C3.2569347,9.47248239 2.75934793,8.03666233 3.33803265,6.84417323 C3.57324921,6.3594651 3.96471567,5.96799864 4.4494238,5.73278208 L15.2151022,0.508471423 C15.8767412,0.187394774 16.6490659,0.187394774 17.3107049,0.508471423 Z" id="Rectangle-Copy-28" fill="#FFFFFF"></path></g></g></g></g></svg> 