<?xml version="1.0" encoding="UTF-8"?> <svg xmlns="http://www.w3.org/2000/svg" xmlns:xlink="http://www.w3.org/1999/xlink" width="40px" height="40px" viewBox="0 0 40 40" version="1.1"><title>Payments Copy 5</title><defs><circle id="path-1" cx="20.0080808" cy="19.9636364" r="19.6080808"></circle></defs><g id="Home" stroke="none" stroke-width="1" fill="none" fill-rule="evenodd"><g id="technology-menu" transform="translate(-51.000000, -265.000000)"><g id="Payments-Copy-5" transform="translate(51.000000, 265.000000)"><mask id="mask-2" fill="white"><use xlink:href="#path-1"></use></mask><use id="Oval" fill="#19E1FF" fill-rule="nonzero" xlink:href="#path-1"></use><path d="M19.6553672,54 L21.8644068,26.4420485 L30.960452,26.4420485 L31.4152542,21.3962264 L22.2542373,21.3962264 L22.579096,17.7088949 C22.9256121,13.5687332 24.8747646,11.4986523 28.4265537,11.4986523 C29.3361582,11.4986523 30.3757062,11.671159 31.5451977,12.0161725 L31.5451977,12.0161725 L32,6.64690027 C30.5706215,6.21563342 29.0112994,6 27.3220339,6 C24.0734463,6 21.4637476,6.94878706 19.4929379,8.84636119 C17.5221281,10.7439353 16.3851224,13.5040431 16.0819209,17.1266846 L16.0819209,17.1266846 L15.7570621,21.3962264 L9.45480226,21.3962264 L9,26.4420485 L15.3672316,26.4420485 L13.1581921,54 L19.6553672,54 Z" id="f" fill="#FFFFFF" fill-rule="nonzero" mask="url(#mask-2)"></path></g></g></g></svg> 