<?xml version="1.0" encoding="UTF-8"?> <svg xmlns="http://www.w3.org/2000/svg" xmlns:xlink="http://www.w3.org/1999/xlink" width="40px" height="40px" viewBox="0 0 40 40" version="1.1"><title>Team</title><g id="Home" stroke="none" stroke-width="1" fill="none" fill-rule="evenodd"><g id="ecosystem-menu" transform="translate(-51.000000, -64.000000)" fill-rule="nonzero"><g id="Team" transform="translate(51.000000, 64.000000)"><circle id="Oval" fill="#19E1FF" cx="19.9755102" cy="20.155102" r="19.8081633"></circle><path d="M33.5271323,28 L27.4759084,28 C26.4121087,28 25.7950128,26.8409987 26.0621141,25.5532194 L26.0943504,25.3968463 C26.656184,22.7155059 28.5765496,21 30.5015203,21 L30.5015203,21 C32.4218859,21 34.3422515,22.7155059 34.9040851,25.3968463 L34.9363214,25.5532194 C35.2080278,26.8409987 34.5863267,28 33.5271323,28 Z" id="Path" fill-opacity="0.300262238" fill="#1969FF"></path><path d="M30.5274156,22.9998144 L30.5274156,22.9998144 C28.6328897,23.0176129 26.9867952,21.7537543 26.5890164,19.975942 L26.0904849,17.5501456 C25.5520708,14.784642 27.466432,12 30.502489,12 L30.502489,12 C33.5335608,12 35.4479219,14.784642 34.9095079,17.5501456 L34.4109763,19.975942 C34.0174524,21.7343868 32.4013942,22.9927046 30.5274156,22.9998144 Z" id="Path" fill="#FFFFFF"></path><path d="M12.523835,28 L6.47616499,28 C5.41218039,28 4.79497721,26.8409987 5.06212485,25.5532194 L5.09436681,25.3968463 C5.65629807,22.7155059 7.57699754,21 9.502303,21 L9.502303,21 C11.4230025,21 13.3437019,22.7155059 13.9056332,25.3968463 L13.9378751,25.5532194 C14.2050228,26.8409987 13.5878196,28 12.523835,28 Z" id="Path" fill-opacity="0.300262238" fill="#1969FF"></path><path d="M10.5224375,22.9998587 L10.5224375,22.9998587 C8.62977628,23.0153733 6.98642801,21.752019 6.58902368,19.9759741 L6.09049214,17.5501679 C5.55207808,14.7846532 7.46643919,12 10.497511,12 L10.497511,12 C13.533568,12 15.4479292,14.7846532 14.9095151,17.5501679 L14.4109836,19.9759741 C14.0170605,21.7361728 12.3982873,22.9949938 10.5224375,22.9998587 L10.5224375,22.9998587 Z" id="Path" fill="#FFFFFF"></path><path d="M24.8610968,32 L16.1282415,32 C14.5951403,32 13.7024484,30.3389181 14.0905753,28.505505 L14.1390912,28.280517 C14.9493061,24.4509335 17.7195618,22 20.4995208,22 L20.4995208,22 C23.2794797,22 26.054587,24.4557204 26.8648019,28.280517 L26.9133178,28.505505 C27.2917415,30.3484921 26.3990497,32 24.8610968,32 Z" id="Path" fill-opacity="0.300262238" fill="#1969FF"></path><path d="M21.0013616,22.999816 L21.0013616,22.999816 C18.4782008,23.0204676 16.2860749,21.3008824 15.7493988,18.8799807 L15.1195509,15.5498598 C14.4024932,11.8010951 16.9800248,8 21.0013616,8 L21.0013616,8 C25.0420784,8 27.60023,11.8058525 26.8783274,15.5688891 L26.2484794,18.89901 C25.7042843,21.3105817 23.5168572,23.0201325 21.0013616,22.999816 L21.0013616,22.999816 Z" id="Path" fill="#FFFFFF"></path></g></g></g></svg> 