<?xml version="1.0" encoding="UTF-8"?> <svg xmlns="http://www.w3.org/2000/svg" xmlns:xlink="http://www.w3.org/1999/xlink" width="188px" height="40px" viewBox="0 0 188 40" version="1.1"><title>waves_logo_grey</title><g id="Page-1" stroke="none" stroke-width="1" fill="none" fill-rule="evenodd"><g id="waves_logo_grey" fill-rule="nonzero"><rect id="Rectangle" fill="#717E96" transform="translate(178.030697, 9.932335) rotate(135.000000) translate(-178.030697, -9.932335) " x="171.108504" y="3.01014195" width="13.8443868" height="13.8443868"></rect><g id="Group" transform="translate(0.000000, 9.373893)" fill="#7C89A0"><polygon id="Path" points="43.7328183 0.576854981 38.2166425 0.576854981 37.6397875 1.08160309 31.979398 20.5144053 31.9433446 20.5144053 25.5979398 1.08160309 25.0210848 0.576854981 19.252535 0.576854981 18.67568 1.08160309 12.3663287 20.406245 12.2581684 20.3341381 12.2221149 20.2980847 6.56172541 1.08160309 5.98487043 0.576854981 0.360534363 0.576854981 0 1.08160309 8.8330919 28.4461613 9.44600032 28.9869628 14.9982295 28.9869628 15.6111379 28.4461613 21.9204893 8.86914534 22.064703 8.86914534 28.4101078 28.4461613 29.0230163 28.9869628 34.6473523 28.9869628 35.2602607 28.4461613 44.0933526 1.08160309"></polygon><polygon id="Path" points="106.141317 0.576854981 100.589087 0.576854981 99.976179 1.08160309 92.2246902 21.3075809 92.1525833 21.3436343 84.4732014 1.08160309 83.8602929 0.576854981 78.1999034 0.576854981 77.8393691 1.08160309 88.907774 28.4461613 89.5567359 28.9869628 94.6763238 28.9869628 95.3252857 28.4461613 106.501851 1.08160309"></polygon><path d="M134.767745,16.2961532 L135.308547,15.7914051 L135.308547,14.9621761 C135.308547,10.5276034 134.046676,6.70593916 131.558989,4.03798487 C129.071302,1.37003058 125.718333,0 121.608241,0 C117.642363,0 114.325447,1.47819089 111.765653,4.3624658 C109.205859,7.2467407 107.943988,10.743924 107.943988,14.709802 C107.943988,18.9280541 109.277966,22.4612908 111.909866,25.2374054 C114.541767,28.01352 118.002897,29.4196041 122.185096,29.4196041 C125.213584,29.4196041 127.809432,28.6985353 129.900531,27.2203444 C131.99163,25.778207 134.19089,23.3986802 134.948012,20.1538709 L134.551424,19.6130694 L129.35973,19.6130694 L128.638661,20.1538709 C127.340737,22.7497183 125.357798,23.9755352 122.076935,23.9755352 C119.949783,23.9755352 118.038951,23.218413 116.452599,21.7402221 C114.938355,20.3341381 114.073073,18.6396266 113.856752,16.2240464 L134.767745,16.2961532 Z M114.217286,11.2486721 C115.118622,7.89570256 117.93079,5.40801545 121.608241,5.40801545 C126.475455,5.40801545 128.494447,8.86914534 129.071302,11.2486721 L114.217286,11.2486721 Z" id="Shape"></path><path d="M68.82601,0.576854981 L68.2852084,1.11765653 L68.2852084,3.92982456 L68.1770481,4.03798487 C67.4559794,3.10059553 66.4825366,2.27136649 65.3288267,1.5863512 C65.0764526,1.44213745 64.7880251,1.29792371 64.4995976,1.15370996 C62.9492999,0.3965878 61.1826815,0.0360534363 59.2718493,0.0360534363 C55.7025592,0.0360534363 52.5659102,1.47819089 49.9700628,4.29035892 C47.3742154,7.10252696 46.0762916,10.6357637 46.0762916,14.7819089 C46.0762916,18.9280541 47.3742154,22.4612908 49.9700628,25.2734589 C52.5659102,28.0856269 55.7025592,29.5277644 59.2718493,29.5277644 C61.1826815,29.5277644 62.9132464,29.16723 64.4635442,28.4101078 C64.7519717,28.2658941 65.0764526,28.1216803 65.3648801,27.9414132 C66.4825366,27.2563979 67.419926,26.4992757 68.1409947,25.5979398 C68.1770481,25.5618864 68.2852084,25.6339932 68.3212619,25.5979398 L68.3212619,28.5182681 L68.8620634,29.0590697 L73.5850636,29.0590697 L74.1258651,28.5182681 L74.1258651,1.08160309 L73.5850636,0.540801545 L68.82601,0.540801545 L68.82601,0.576854981 Z M65.9056816,21.5599549 C64.3193304,23.2544664 62.4084983,24.0836955 60.1010784,24.0836955 C57.8657653,24.0836955 56.2073073,23.2544664 54.5849026,21.5239015 C52.962498,19.82939 52.1693224,17.5580235 52.1693224,14.709802 C52.1693224,11.897634 52.9985514,9.6262675 54.5849026,7.89570256 C56.2073073,6.20119105 57.8297119,5.33590858 60.1010784,5.33590858 C62.3724449,5.33590858 64.283277,6.16513761 65.9056816,7.85964912 C66.9512313,8.97730565 67.6362466,10.3112828 68.0328344,11.9336874 L68.0328344,17.4138098 C67.6723,19.1083213 66.9512313,20.4783518 65.9056816,21.5599549 Z" id="Shape"></path><path d="M154.777402,12.5465958 C154.777402,12.5465958 151.676807,11.897634 149.117013,11.320779 C146.773539,10.7799775 145.583776,10.0949622 145.583776,8.4365041 C145.583776,6.66988572 147.278287,5.19169483 150.919685,5.19169483 C154.488975,5.19169483 156.471914,6.77804603 156.471914,8.18413005 L157.084822,8.7249316 L162.276517,8.7249316 L162.673105,8.22018349 C162.673105,4.50667954 159.464349,0.0721068727 151.063898,0.0721068727 C142.302913,0.0721068727 139.562852,5.22774827 139.562852,8.54466441 C139.562852,11.320779 140.572348,14.6016417 147.278287,16.1519395 C147.278287,16.1519395 150.487043,16.8730082 153.046837,17.4498632 C155.967166,18.098825 157.192982,19.1083213 157.192982,20.8028328 C157.192982,22.3531305 155.642685,24.2279092 151.6047,24.2279092 C147.855142,24.2279092 145.583776,22.4252374 145.475616,20.2980847 L144.826654,19.7572831 L139.526799,19.7572831 L139.130211,20.2980847 C139.598906,25.0571383 143.132142,29.5277644 151.568646,29.5277644 C161.122807,29.5277644 163.069693,23.6871077 163.069693,20.6225656 C163.069693,16.5124738 160.726219,13.8445196 154.777402,12.5465958 Z" id="Path"></path></g></g></g></svg> 